<svg id="Layer_1" data-name="Layer 1" xmlns="http://www.w3.org/2000/svg" viewBox="0 0 500 75">
  <defs>
    <style>
      .cls-1{fill:#004f9f;}.cls-2{fill:#009fe3;}.cls-3{fill:none;}
    </style>
  </defs>
  <title>Fisiodomus</title>
  <path class="cls-1" d="M343.64,130.81a21.25,21.25,0,0,1,7.89,1.45,19.44,19.44,0,0,1,6.36,4,18.64,18.64,0,0,1,4.22,6.11,19.85,19.85,0,0,1,0,15.27,18.62,18.62,0,0,1-4.22,6.11,19.87,19.87,0,0,1-6.36,4.07,21.63,21.63,0,0,1-15.78,0,19.85,19.85,0,0,1-6.36-4.07,18.59,18.59,0,0,1-4.22-6.11,19.85,19.85,0,0,1,0-15.27,18.61,18.61,0,0,1,4.22-6.11,19.42,19.42,0,0,1,6.36-4A21.24,21.24,0,0,1,343.64,130.81Zm0,31.2a11.45,11.45,0,0,0,4.58-.91,10.36,10.36,0,0,0,3.6-2.55,12.06,12.06,0,0,0,2.33-3.78,12.8,12.8,0,0,0,.84-4.69,13.4,13.4,0,0,0-.84-4.76,11.47,11.47,0,0,0-2.33-3.82,10.61,10.61,0,0,0-3.6-2.51,12.09,12.09,0,0,0-9.2,0,10.68,10.68,0,0,0-3.56,2.51,11.44,11.44,0,0,0-2.33,3.82,13.38,13.38,0,0,0-.84,4.76,12.78,12.78,0,0,0,.84,4.69,12,12,0,0,0,2.33,3.78A10.43,10.43,0,0,0,339,161.1,11.38,11.38,0,0,0,343.64,162Z" transform="translate(-105.57 -106.16)"/>
  <path class="cls-2" d="M434.33,130.81a21.25,21.25,0,0,1,7.89,1.45,19.44,19.44,0,0,1,6.36,4,18.64,18.64,0,0,1,4.22,6.11,19.85,19.85,0,0,1,0,15.27,18.62,18.62,0,0,1-4.22,6.11,19.87,19.87,0,0,1-6.36,4.07,21.63,21.63,0,0,1-15.78,0,19.85,19.85,0,0,1-6.36-4.07,18.59,18.59,0,0,1-4.22-6.11,19.85,19.85,0,0,1,0-15.27,18.61,18.61,0,0,1,4.22-6.11,19.42,19.42,0,0,1,6.36-4A21.24,21.24,0,0,1,434.33,130.81Zm0,31.2a11.45,11.45,0,0,0,4.58-.91,10.36,10.36,0,0,0,3.6-2.55,12.06,12.06,0,0,0,2.33-3.78,12.8,12.8,0,0,0,.84-4.69,13.4,13.4,0,0,0-.84-4.76,11.47,11.47,0,0,0-2.33-3.82,10.61,10.61,0,0,0-3.6-2.51,12.09,12.09,0,0,0-9.2,0,10.68,10.68,0,0,0-3.56,2.51,11.44,11.44,0,0,0-2.33,3.82,13.38,13.38,0,0,0-.84,4.76,12.78,12.78,0,0,0,.84,4.69,12,12,0,0,0,2.33,3.78,10.43,10.43,0,0,0,3.56,2.55A11.38,11.38,0,0,0,434.33,162Z" transform="translate(-105.57 -106.16)"/>
  <path class="cls-2" d="M460.23,144.84a14.16,14.16,0,0,1,1.24-6.11,12.31,12.31,0,0,1,3.38-4.36,15,15,0,0,1,5.05-2.65,21.14,21.14,0,0,1,6.33-.91,18.79,18.79,0,0,1,8.07,1.67,13.38,13.38,0,0,1,5.67,4.95,13.46,13.46,0,0,1,5.6-4.95,18.13,18.13,0,0,1,7.93-1.67,21.68,21.68,0,0,1,6.25.87,14.15,14.15,0,0,1,5,2.62,12.53,12.53,0,0,1,3.35,4.36,14.18,14.18,0,0,1,1.24,6.11v23.56h-8.29V147.61q0-5-2.25-7.16a8.5,8.5,0,0,0-6.11-2.14,8.64,8.64,0,0,0-6.22,2.4q-2.51,2.4-2.51,7.78v19.85h-8.29V148.48q0-5.38-2.51-7.78a9.44,9.44,0,0,0-12.33-.22q-2.33,2.18-2.33,7.2v20.65h-8.29V144.84Z" transform="translate(-105.57 -106.16)"/>
  <path class="cls-1" d="M300.66,157.35a10.39,10.39,0,0,1-4.33,8.73q-4.32,3.27-12.47,3.26a40.54,40.54,0,0,1-7.13-.57,44.79,44.79,0,0,1-5.57-1.35,28.43,28.43,0,0,1-3.81-1.49,12.08,12.08,0,0,1-1.9-1.08l3.14-5.61a10.68,10.68,0,0,0,1.81,1c0.88,0.38,2,.78,3.24,1.2a34.61,34.61,0,0,0,4.41,1.06,32,32,0,0,0,5.38.43,16.66,16.66,0,0,0,6.18-1,3.46,3.46,0,0,0,2.4-3.39,3.51,3.51,0,0,0-1.53-3.08,12.74,12.74,0,0,0-5.46-1.49l-5.67-.65a27.33,27.33,0,0,1-5.34-1.06,13.51,13.51,0,0,1-4.18-2.08,9.16,9.16,0,0,1-2.73-3.24,10.07,10.07,0,0,1-1-4.61,10.91,10.91,0,0,1,.9-4.4,9.93,9.93,0,0,1,2.88-3.67,14.15,14.15,0,0,1,5.12-2.51,28.34,28.34,0,0,1,7.67-.91h1.21l0.82,0a30,30,0,0,1,12,2.92,2.23,2.23,0,0,1,.34.2,3.07,3.07,0,0,1,1.26,1.56s0,0,0,0a3.13,3.13,0,0,1-4.3,3.86l-0.34-.15c-0.27-.13-0.54-0.24-0.79-0.34l-0.38-.15a16.43,16.43,0,0,0-2.1-.73,13,13,0,0,0-1.54-.4,7.89,7.89,0,0,0-.79-0.15,4.72,4.72,0,0,0-.74-0.13l-0.43-.05q-0.63-.1-1.3-0.15c-0.32,0-.65-0.05-1-0.06h-0.27l-0.69,0h-0.93q-8.43,0-8.43,4.44a3.17,3.17,0,0,0,1.59,2.88,11.7,11.7,0,0,0,4.58,1.34l7.42,0.94q6,0.8,9.38,3.31A8.65,8.65,0,0,1,300.66,157.35Z" transform="translate(-105.57 -106.16)"/>
  <path class="cls-1" d="M255,130.94a4.28,4.28,0,0,0-1.81-.41,4.1,4.1,0,0,0-2.74,1,4.17,4.17,0,0,0-1.4,3.11v33.67h8.3V134.67A4.15,4.15,0,0,0,255,130.94Zm-4.82-5.51a4.32,4.32,0,1,0-1.23-3A4.1,4.1,0,0,0,250.16,125.43Z" transform="translate(-105.57 -106.16)"/>
  <path class="cls-1" d="M313.88,130.93a4.28,4.28,0,0,0-1.81-.41,4.1,4.1,0,0,0-2.74,1,4.17,4.17,0,0,0-1.4,3.11v33.67h8.3V134.67A4.15,4.15,0,0,0,313.88,130.93Zm-4.83-5.51a4.32,4.32,0,1,0-1.23-3A4.1,4.1,0,0,0,309.05,125.43Z" transform="translate(-105.57 -106.16)"/>
  <path class="cls-2" d="M562.2,134.67v18.89a16.74,16.74,0,0,1-1.27,6.65,13.6,13.6,0,0,1-3.63,5,16,16,0,0,1-5.63,3.1,25.33,25.33,0,0,1-14.4,0,15.5,15.5,0,0,1-5.6-3.1,14.07,14.07,0,0,1-3.65-5,16.31,16.31,0,0,1-1.3-6.65V134.67a4.11,4.11,0,0,1,1.45-3.15h0a4.15,4.15,0,0,1,6.82,3.16v17.08c0,3.3.78,5.8,2.33,7.52s3.93,2.59,7.13,2.59,5.57-.87,7.13-2.59,2.32-4.22,2.32-7.52V134.67a4.08,4.08,0,0,1,1.47-3.15,0,0,0,0,1,0,0,4.11,4.11,0,0,1,2.68-1A4.14,4.14,0,0,1,562.2,134.67Z" transform="translate(-105.57 -106.16)"/>
  <path class="cls-1" d="M215,126.38v13.23h20.22a4,4,0,1,1,0,7.93H215v20.8H206.2V123.39q0-5,5.32-4.95h25.81a4,4,0,1,1,0,7.93H215Z" transform="translate(-105.57 -106.16)"/>
  <path class="cls-2" d="M603.44,157.35a10.39,10.39,0,0,1-4.33,8.73q-4.32,3.27-12.47,3.26a40.54,40.54,0,0,1-7.13-.57,44.79,44.79,0,0,1-5.57-1.35,28.43,28.43,0,0,1-3.81-1.49,12.08,12.08,0,0,1-1.9-1.08l3.14-5.61a10.68,10.68,0,0,0,1.81,1c0.88,0.38,2,.78,3.24,1.2a34.61,34.61,0,0,0,4.41,1.06,32,32,0,0,0,5.38.43,16.66,16.66,0,0,0,6.18-1,3.46,3.46,0,0,0,2.4-3.39,3.51,3.51,0,0,0-1.53-3.08,12.74,12.74,0,0,0-5.46-1.49l-5.67-.65a27.33,27.33,0,0,1-5.34-1.06,13.51,13.51,0,0,1-4.18-2.08,9.16,9.16,0,0,1-2.73-3.24,10.07,10.07,0,0,1-1-4.61,10.91,10.91,0,0,1,.9-4.4,9.93,9.93,0,0,1,2.88-3.67,14.15,14.15,0,0,1,5.12-2.51,28.34,28.34,0,0,1,7.67-.91h1.21l0.82,0a30,30,0,0,1,12,2.92,2.23,2.23,0,0,1,.34.2,3.07,3.07,0,0,1,1.26,1.56s0,0,0,0a3.13,3.13,0,0,1-4.3,3.86l-0.34-.15c-0.27-.13-0.54-0.24-0.79-0.34l-0.38-.15a16.43,16.43,0,0,0-2.1-.73,13,13,0,0,0-1.54-.4,7.89,7.89,0,0,0-.79-0.15,4.72,4.72,0,0,0-.74-0.13l-0.43-.05q-0.63-.1-1.3-0.15c-0.32,0-.65-0.05-1-0.06h-0.27l-0.69,0h-0.93q-8.43,0-8.43,4.44a3.17,3.17,0,0,0,1.59,2.88,11.7,11.7,0,0,0,4.58,1.34l7.42,0.94q6,0.8,9.38,3.31A8.65,8.65,0,0,1,603.44,157.35Z" transform="translate(-105.57 -106.16)"/>
  <path class="cls-2" d="M406,117.74a4.21,4.21,0,0,0-1.7-.36,4.13,4.13,0,0,0-2.57.9l0,0a4.12,4.12,0,0,0-1.5,3.17v14.92a14.71,14.71,0,0,0-5-4,16,16,0,0,0-7.42-1.63,18.94,18.94,0,0,0-7.38,1.41,17.56,17.56,0,0,0-5.89,4,18.55,18.55,0,0,0-3.93,6.11,20.58,20.58,0,0,0-1.41,7.74,19.75,19.75,0,0,0,1.49,7.71,18.08,18.08,0,0,0,4.1,6.11,18.91,18.91,0,0,0,6.22,4,20.89,20.89,0,0,0,7.89,1.45,22.47,22.47,0,0,0,7.78-1.3,16.86,16.86,0,0,0,6.18-3.93,18.25,18.25,0,0,0,4.12-6.55,26,26,0,0,0,1.49-9.24V121.49A4.11,4.11,0,0,0,406,117.74Zm-6.64,37.13a10.9,10.9,0,0,1-2.28,3.71,10.26,10.26,0,0,1-3.53,2.4,11.5,11.5,0,0,1-4.55.88,11,11,0,0,1-4.58-.92,10.83,10.83,0,0,1-3.53-2.47,10.38,10.38,0,0,1-2.28-3.71,13.23,13.23,0,0,1-.8-4.69,13.52,13.52,0,0,1,.8-4.72,10.43,10.43,0,0,1,2.28-3.75,10.83,10.83,0,0,1,3.53-2.47,11.8,11.8,0,0,1,9.13,0,10.2,10.2,0,0,1,3.53,2.51,11.58,11.58,0,0,1,2.28,3.77,12.83,12.83,0,0,1,.84,4.65A13.26,13.26,0,0,1,399.37,154.88Z" transform="translate(-105.57 -106.16)"/>
  <circle class="cls-1" cx="35.53" cy="37.6" r="11.47"/>
  <path class="cls-1" d="M171,180a3.74,3.74,0,0,1-2.63-1.08c-11.06-10.9-18.51-10.78-27.15-10.64-9,.15-19.19.31-32.39-12.81a3.75,3.75,0,1,1,5.29-5.32c10.95,10.88,18.38,10.77,27,10.63,9-.15,19.24-0.31,32.54,12.79A3.75,3.75,0,0,1,171,180Z" transform="translate(-105.57 -106.16)"/>
  <path class="cls-2" d="M111.44,134.44a3.75,3.75,0,0,1-2-6.92l31.77-20.17L173,127.52a3.75,3.75,0,1,1-4,6.33L141.2,116.23l-27.75,17.62A3.74,3.74,0,0,1,111.44,134.44Z" transform="translate(-105.57 -106.16)"/>
  <rect class="cls-3" width="500" height="75"/>
</svg>